<?xml version="1.0" encoding="iso-8859-1"?>
<!-- Generator: Adobe Illustrator 19.0.0, SVG Export Plug-In . SVG Version: 6.00 Build 0)  -->
<svg version="1.1" id="Capa_1" xmlns="http://www.w3.org/2000/svg" xmlns:xlink="http://www.w3.org/1999/xlink" x="0px" y="0px"
	 viewBox="0 0 512.001 512.001" style="enable-background:new 0 0 512.001 512.001;" xml:space="preserve">
<path style="fill:#CAE8F9;" d="M330.5,241c0.899,4.799,1.5,9.899,1.5,15c0,41.4-34.6,75-76,75s-76-33.6-76-75
	c0-5.101,0.601-10.201,1.5-15H0v45c0,6.599,4.2,12.299,10.201,14.099l60.899,20.4c2.4,7.201,5.099,13.801,8.1,20.101l-28.5,57.299
	c-2.701,5.7-1.8,12.599,2.999,17.1L96,457.299c4.499,4.801,11.4,5.7,17.1,3.001l57.299-28.5c6.301,2.999,12.9,5.7,20.099,8.101
	L210.9,501.8c1.8,6,7.5,10.201,14.099,10.201h62c6.599,0,12.299-4.2,14.099-10.201l20.402-61.899
	c7.2-2.401,13.799-5.101,20.099-8.101l57.299,28.5c5.7,2.699,12.601,1.8,17.1-3.001L458.301,415c4.799-4.501,5.7-11.4,2.999-17.1
	l-28.5-57.3c3.001-6.301,5.7-12.9,8.101-20.101l60.899-20.4c6-1.8,10.201-7.5,10.201-14.099v-45H330.5z"/>
<path style="fill:#B7E0F6;" d="M330.5,241c0.899,4.799,1.5,9.899,1.5,15c0,41.4-34.6,75-76,75v181h31
	c6.599,0,12.299-4.2,14.099-10.201l20.402-61.899c7.2-2.401,13.799-5.101,20.099-8.101l57.299,28.5c5.7,2.699,12.601,1.8,17.1-3.001
	L458.301,415c4.799-4.501,5.7-11.4,2.999-17.1l-28.5-57.3c3.001-6.301,5.7-12.9,8.101-20.101l60.899-20.4
	c6-1.8,10.201-7.5,10.201-14.099v-45H330.5z"/>
<path style="fill:#A4D9F5;" d="M390.5,241h-60c0.899,4.799,1.5,9.899,1.5,15c0,41.4-34.6,75-76,75s-76-33.6-76-75
	c0-5.101,0.601-10.201,1.5-15h-60c-0.599,5.099-1.5,9.899-1.5,15c0,74.7,61.3,135,136,135s136-60.3,136-135
	C392,250.899,391.099,246.099,390.5,241z"/>
<path style="fill:#81C8EE;" d="M390.5,241h-60c0.899,4.799,1.5,9.899,1.5,15c0,41.4-34.6,75-76,75v60c74.7,0,136-60.3,136-135
	C392,250.899,391.099,246.099,390.5,241z"/>
<path style="fill:#FEA832;" d="M512,271v-46c0-57.9-47.1-105-105-105s-105,47.1-105,105v46H512z"/>
<path style="fill:#FE9923;" d="M512,271v-46c0-57.9-47.1-105-105-105v151H512z"/>
<path style="fill:#FEA832;" d="M210,225v46H0v-43.001c0-50.099,33.9-95.7,83.101-105.601C90.3,120.899,97.8,120,105,120
	C162.9,119.7,210,167.1,210,225z"/>
<path style="fill:#FE9923;" d="M210,225v46H105V120C162.9,119.7,210,167.1,210,225z"/>
<path style="fill:#FEDB41;" d="M105,0C63.6,0,30,33.6,30,75s33.6,75,75,75s75-33.6,75-75S146.4,0,105,0z"/>
<path style="fill:#FCBF29;" d="M180,75c0,41.4-33.6,75-75,75V0C146.4,0,180,33.6,180,75z"/>
<path style="fill:#FEDB41;" d="M407,0c-41.4,0-75,33.6-75,75s33.6,75,75,75s75-33.6,75-75S448.4,0,407,0z"/>
<path style="fill:#FCBF29;" d="M482,75c0,41.4-33.6,75-75,75V0C448.4,0,482,33.6,482,75z"/>
<path style="fill:#1689FC;" d="M392,271v-15c0-74.401-61.601-136-136-136s-136,61.599-136,136v15H392z"/>
<path style="fill:#136EF1;" d="M392,271v-15c0-74.401-61.601-136-136-136v151H392z"/>
<path style="fill:#17ACE8;" d="M256,0c-41.4,0-76,33.6-76,75s34.6,75,76,75s76-33.6,76-75S297.4,0,256,0z"/>
<path style="fill:#1689FC;" d="M332,75c0,41.4-34.6,75-76,75V0C297.4,0,332,33.6,332,75z"/>
<g>
</g>
<g>
</g>
<g>
</g>
<g>
</g>
<g>
</g>
<g>
</g>
<g>
</g>
<g>
</g>
<g>
</g>
<g>
</g>
<g>
</g>
<g>
</g>
<g>
</g>
<g>
</g>
<g>
</g>
</svg>
